<?xml version="1.0" encoding="UTF-8"?>
<svg xmlns="http://www.w3.org/2000/svg" width="400" height="400" viewBox="0 0 400 400">
    <rect width="100%" height="100%" fill="white"/>
    <g stroke="#333" stroke-width="3" fill="none" stroke-linecap="round" stroke-linejoin="round">
        <path d="M168,56 L232,65.6 L289.6,120 L321.6,184 L312,257.6 L280,302.4 L216,334.4 L152,321.6 L97.6,264 L78.4,193.6 L110.39999999999999,120 Z" stroke-width="4"/>
        <path d="M152,168 L168,152 L184,168 L168,184 L136,168 L200,168 L168,136 L168,200 L142.4,142.4 L193.6,142.4 L193.6,193.6 L142.4,193.6" stroke-width="3"/>
        <path d="M232,161.6 L248,145.60000000000002 L264,161.6 L248,177.6 L216,161.6 L280,161.6 L248,129.60000000000002 L248,193.6 L222.39999999999998,136 L273.6,136 L273.6,187.20000000000002 L222.39999999999998,187.20000000000002" stroke-width="3"/>
        <path d="M136,257.6 L161.6,273.6 L190.39999999999998,280 L209.60000000000002,280 L238.4,273.6 L264,257.6 L280,248 L270.4,270.4 L248,283.2" stroke-width="3"/>
    </g>
    <text x="20" y="30" font-family="Arial" font-size="18" fill="#666">Face 6</text>
</svg>