<?xml version="1.0" encoding="UTF-8"?>
<svg xmlns="http://www.w3.org/2000/svg" width="400" height="400" viewBox="0 0 400 400">
    <rect width="100%" height="100%" fill="white"/>
    <g stroke="#333" stroke-width="3" fill="none" stroke-linecap="round" stroke-linejoin="round">
        <path d="M104,104 L296,104 L296,264 L280,312 L232,344 L168,344 L120,312 L104,264 Z" stroke-width="4"/>
        <path d="M152,152 L168,184 L136,184 L129.60000000000002,142.4 L142.4,136 L161.6,142.4 L174.4,152 L158.4,168" stroke-width="3"/>
        <path d="M248,152 L232,184 L264,184 L270.4,142.4 L257.6,136 L238.4,142.4 L225.6,152 L241.6,168" stroke-width="3"/>
        <path d="M120,248 L152,270.4 L200,280 L248,270.4 L280,248" stroke-width="3"/>
    </g>
    <text x="20" y="30" font-family="Arial" font-size="18" fill="#666">Face 2</text>
</svg>