<?xml version="1.0" encoding="UTF-8"?>
<svg xmlns="http://www.w3.org/2000/svg" width="400" height="400" viewBox="0 0 400 400">
    <rect width="100%" height="100%" fill="white"/>
    <g stroke="#333" stroke-width="3" fill="none" stroke-linecap="round" stroke-linejoin="round">
        <path d="M200,56 L280,168 L312,280 L264,328 L200,344 L136,328 L88,280 L120,168 Z" stroke-width="4"/>
        <path d="M161.6,152 L174.4,142.4 L187.20000000000002,152 L187.20000000000002,168 L174.4,177.6 L161.6,168 L168,158.4 L180.8,158.4" stroke-width="3"/>
        <path d="M212.8,152 L225.6,142.4 L238.4,152 L238.4,168 L225.6,177.6 L212.8,168 L219.20000000000002,158.4 L232,158.4" stroke-width="3"/>
        <path d="M152,232 L168,248 L184,238.4 L200,251.20000000000002 L216,238.4 L232,248 L248,232" stroke-width="3"/>
    </g>
    <text x="20" y="30" font-family="Arial" font-size="18" fill="#666">Face 3</text>
</svg>