<?xml version="1.0" encoding="UTF-8"?>
<svg xmlns="http://www.w3.org/2000/svg" width="400" height="400" viewBox="0 0 400 400">
    <rect width="100%" height="100%" fill="white"/>
    <g stroke="#333" stroke-width="3" fill="none" stroke-linecap="round" stroke-linejoin="round">
        <path d="M200,72 L248,104 L280,152 L296,216 L264,280 L200,312 L136,280 L104,216 L120,152 L152,104 Z" stroke-width="4"/>
        <path d="M142.4,152 L161.6,136 L180.8,152 L180.8,184 L161.6,200 L142.4,184" stroke-width="3"/>
        <path d="M219.20000000000002,152 L238.4,136 L257.6,152 L257.6,184 L238.4,200 L219.20000000000002,184" stroke-width="3"/>
        <path d="M184,238.4 L193.6,232 L206.4,232 L216,238.4 L216,257.6 L206.4,264 L193.6,264 L184,257.6" stroke-width="3"/>
    </g>
    <text x="20" y="30" font-family="Arial" font-size="18" fill="#666">Face 4</text>
</svg>